<svg xmlns="http://www.w3.org/2000/svg" width="500" zoomAndPan="magnify" viewBox="0 0 375 375" height="500" preserveAspectRatio="xMidYMid meet" xmlns:v="https://vecta.io/nano"><style><![CDATA[.B{clip-rule:nonzero}.C{fill:#fca311}.D{fill:#14213d}.E{fill:#e5e5e5}]]></style><defs><clipPath id="A"><path d="M.852 69.871h149.867v149.867H.852zm0 0" class="B"/></clipPath><clipPath id="B"><path d="M75.785 69.871c-41.387 0-74.934 33.551-74.934 74.934s33.547 74.934 74.934 74.934 74.934-33.551 74.934-74.934-33.551-74.934-74.934-74.934zm0 0" class="B"/></clipPath><clipPath id="C"><path d="M0 69.02h150.75v150.75H0zm0 0" class="B"/></clipPath><clipPath id="D"><path d="M111.984 69.871h150.75v150.75h-150.75zm0 0" class="B"/></clipPath><clipPath id="E"><path d="M224.281 69.02H375v150.75H224.281zm0 0" class="B"/></clipPath><clipPath id="F"><path d="M34.777 103.371h81.75v81.75h-81.75zm0 0" class="B"/></clipPath><clipPath id="G"><path d="M179.598 184.598h15.574v5.902h-15.574zm0 0" class="B"/></clipPath><clipPath id="H"><path d="M186.496 184.598h8.676v5.902h-8.676zm0 0" class="B"/></clipPath><clipPath id="I"><path d="M144.215 135H155v5h-10.785zm0 0" class="B"/></clipPath><clipPath id="J"><path d="M185 98.254h5V109h-5zm0 0" class="B"/></clipPath><clipPath id="K"><path d="M220.207 135.512h10.25v4.238h-10.25zm0 0" class="B"/></clipPath><clipPath id="L"><path d="M254.328 136H345v58.266h-90.672zm0 0" class="B"/></clipPath><path id="M" d="M195.285 177.152a.97.97 0 0 1-.281.68c-.176.172-.414.277-.68.277h-.805c.262 0 .504-.105.676-.277a.97.97 0 0 0 .281-.68.96.96 0 0 0-.957-.957h.805a.96.96 0 0 1 .961.957"/><path id="N" d="M222.623 295.046v-8.078h-38.672v-25.125h37.906v-8.078h-37.906V230.28h38.672v-8.078h-47.734v72.844zm0 0"/></defs><path fill="#fff" d="M-37.5-37.5h450v450h-450z"/><path d="M-37.5-37.5h450v450h-450z" class="E"/><g clip-path="url(#A)"><g clip-path="url(#B)"><path d="M.852 69.871h149.867v149.867H.852zm0 0"/></g></g><g clip-path="url(#C)" class="C"><path d="M150.715 144.379l-.09 3.695-.273 3.688-.453 3.672-.633 3.645-.809 3.609-.988 3.566-1.16 3.512-1.328 3.449-1.5 3.383-1.664 3.305-1.824 3.215-1.977 3.125-2.129 3.027-2.277 2.914-2.414 2.801-2.551 2.68-2.68 2.551-2.801 2.414-2.918 2.277-3.023 2.129-3.125 1.977-3.219 1.824-3.301 1.664-3.383 1.5-3.449 1.328-3.512 1.16-3.566.988-3.609.809-3.645.633-3.672.453-3.687.273-3.699.09c-1.23 0-2.465-.031-3.695-.09l-3.687-.273-3.672-.453-3.645-.633-3.609-.809-3.566-.988-3.512-1.16L46.52 214l-3.383-1.5-3.301-1.664-3.219-1.824-3.125-1.977-3.023-2.129-2.918-2.277-2.801-2.414-2.68-2.551-2.551-2.68-2.414-2.801-2.277-2.914-2.129-3.027-1.977-3.125-1.824-3.215-1.664-3.305-1.5-3.383-1.328-3.449-1.16-3.512-.988-3.566-.809-3.609-.633-3.645-.453-3.672-.273-3.687-.09-3.695.09-3.699.273-3.687.453-3.672.633-3.645.809-3.609.988-3.562 1.16-3.516 1.328-3.449 1.5-3.383 1.664-3.301 1.824-3.219 1.977-3.125 2.129-3.023 2.277-2.918 2.414-2.801 2.551-2.68 2.68-2.547 2.801-2.418 2.918-2.273 3.023-2.133 3.125-1.977 3.219-1.824 3.301-1.664 3.383-1.496 3.449-1.332 3.512-1.16 3.566-.988 3.609-.809 3.645-.633 3.672-.453 3.688-.273 3.695-.09 3.699.09 3.688.273 3.672.453 3.645.633 3.609.809 3.566.988 3.512 1.16 3.449 1.332 3.383 1.496 3.301 1.664 3.219 1.824 3.125 1.977 3.023 2.133 2.918 2.273 2.801 2.418 2.68 2.547 2.551 2.68 2.414 2.801 2.277 2.918 2.129 3.023 1.977 3.125 1.824 3.219 1.664 3.301 1.5 3.383 1.328 3.449 1.16 3.516.988 3.563.809 3.609.633 3.645.453 3.672.273 3.688.09 3.699zm0 0"/></g><g clip-path="url(#D)" class="D"><path d="M262.699 145.23l-.09 3.695-.273 3.691-.453 3.668-.633 3.645-.809 3.609-.988 3.566-1.16 3.512-1.332 3.449-1.496 3.383-1.664 3.305-1.824 3.215-1.977 3.125-2.133 3.027-2.273 2.914-2.418 2.801-2.551 2.68-2.676 2.551-2.801 2.414-2.918 2.277-3.023 2.129-3.125 1.98-3.219 1.82-3.301 1.664-3.383 1.5-3.453 1.328-3.512 1.16-3.562.988-3.609.809-3.645.633-3.672.453-3.687.273-3.699.09c-1.23 0-2.465-.031-3.695-.09l-3.691-.273-3.668-.453-3.645-.633-3.609-.809-3.566-.988-3.512-1.16-3.449-1.328-3.383-1.5-3.305-1.664-3.215-1.82-3.125-1.98-3.027-2.129-2.914-2.277-2.801-2.414-2.68-2.551-2.551-2.68-2.414-2.801-2.277-2.914-2.129-3.027-1.98-3.125-1.82-3.215-1.664-3.305-1.5-3.383-1.328-3.449-1.16-3.512-.988-3.566-.809-3.609-.633-3.645-.453-3.668-.273-3.691-.09-3.695.09-3.699.273-3.687.453-3.672.633-3.645.809-3.609.988-3.562 1.16-3.512 1.328-3.453 1.5-3.383 1.664-3.301 1.82-3.219 1.98-3.125 2.129-3.023 2.277-2.918 2.414-2.801 2.551-2.68 2.68-2.547 2.801-2.418 2.914-2.273 3.027-2.133 3.125-1.977 3.215-1.824 3.305-1.664 3.383-1.496 3.449-1.332 3.512-1.16 3.566-.988 3.609-.809 3.645-.633 3.668-.453 3.691-.273 3.695-.09 3.699.09 3.688.273 3.672.453 3.645.633 3.609.809 3.563.988 3.512 1.16 3.453 1.332 3.383 1.496 3.301 1.664 3.219 1.824 3.125 1.977 3.023 2.133 2.918 2.273 2.801 2.418 2.676 2.547 2.551 2.68 2.418 2.801 2.273 2.918 2.133 3.023 1.977 3.125 1.824 3.219 1.664 3.301 1.496 3.383 1.332 3.453 1.16 3.512.988 3.563.809 3.609.633 3.645.453 3.672.273 3.688.09 3.699zm0 0"/></g><g clip-path="url(#E)" class="C"><path d="M374.996 144.379l-.09 3.695-.27 3.688-.453 3.672-.633 3.645-.812 3.609-.984 3.566-1.16 3.512-1.332 3.449-1.5 3.383-1.664 3.305-1.82 3.215-1.98 3.125-2.129 3.027-2.277 2.914-2.414 2.801-2.551 2.68-2.68 2.551-2.801 2.414-2.914 2.277-3.023 2.129-3.125 1.977-3.219 1.824-3.305 1.664-3.383 1.5-3.449 1.328-3.512 1.16-3.566.988-3.609.809-3.641.633-3.672.453-3.691.273-3.695.09c-1.234 0-2.465-.031-3.699-.09l-3.687-.273-3.672-.453-3.645-.633-3.609-.809-3.562-.988-3.512-1.16-3.453-1.328-3.379-1.5-3.305-1.664-3.219-1.824-3.125-1.977-3.023-2.129-2.914-2.277-2.801-2.414-2.68-2.551-2.551-2.68-2.418-2.801-2.273-2.914-2.129-3.027-1.98-3.125-1.824-3.215-1.66-3.305-1.5-3.383-1.332-3.449-1.16-3.512-.984-3.566-.812-3.609-.633-3.645-.453-3.672-.27-3.687-.094-3.695.094-3.699.27-3.687.453-3.672.633-3.645.813-3.609.984-3.562 1.16-3.516 1.332-3.449 1.5-3.383 1.66-3.301 1.824-3.219 1.98-3.125 2.129-3.023 2.273-2.918 2.418-2.801 2.551-2.68 2.68-2.547 2.801-2.418 2.914-2.273 3.023-2.133 3.125-1.977 3.219-1.824 3.305-1.664 3.379-1.496 3.453-1.332 3.512-1.16 3.563-.988 3.609-.809 3.645-.633 3.672-.453 3.688-.273 3.699-.09 3.695.09 3.691.273 3.672.453 3.641.633 3.609.809 3.566.988 3.512 1.16 3.449 1.332 3.383 1.496 3.305 1.664 3.219 1.824 3.125 1.977 3.023 2.133 2.914 2.273 2.801 2.418 2.68 2.547 2.551 2.68 2.414 2.801 2.277 2.918 2.129 3.023 1.98 3.125 1.82 3.219 1.664 3.301 1.5 3.383 1.332 3.449 1.16 3.516.984 3.563.813 3.609.633 3.645.453 3.672.27 3.688.09 3.699zm0 0"/></g><g clip-path="url(#F)" class="D"><path d="M88.504 133.063c-.777 0-1.41-.633-1.41-1.414v-24.004c0-2.34-1.902-4.238-4.242-4.238H68.711a4.24 4.24 0 0 0-4.242 4.238v24.004c0 .781-.633 1.414-1.414 1.414H39.051c-2.34 0-4.242 1.898-4.242 4.242v14.141a4.25 4.25 0 0 0 4.242 4.242h24.004c.781 0 1.414.633 1.414 1.414v24a4.24 4.24 0 0 0 4.242 4.242h14.141c2.34 0 4.242-1.898 4.242-4.242v-24c0-.781.633-1.414 1.41-1.414h24.004c2.344 0 4.242-1.902 4.242-4.242v-14.141a4.24 4.24 0 0 0-4.242-4.242zm0 0" fill-rule="evenodd"/></g><path d="M187.383 114.527c-13.133 0-23.781 10.645-23.781 23.781 0 4.629 1.324 8.953 3.613 12.605 1.02 1.629 2.293 3.074 3.75 4.324 2.305 1.984 7.277 7.184 7.277 15.125 0 .074.004.152.004.227a4.88 4.88 0 0 0 4.883 4.684h8.512c2.621 0 4.785-2.066 4.879-4.684.004-.074.004-.152.008-.227 0-7.941 4.969-13.141 7.277-15.125 1.453-1.25 2.73-2.695 3.746-4.324a23.63 23.63 0 0 0 3.613-12.605c0-13.137-10.645-23.781-23.781-23.781" class="C"/><path d="M194.324 178.113h-13.883a.96.96 0 0 1-.957-.961.96.96 0 0 1 .957-.957h13.883a.96.96 0 0 1 .961.957.96.96 0 0 1-.961.961m0 2.832h-13.883a.96.96 0 0 1-.957-.957c0-.531.43-.957.957-.957h13.883c.531 0 .961.426.961.957a.96.96 0 0 1-.961.957" class="E"/><g clip-path="url(#G)" class="E"><path d="M194.637 184.695c.301 0 .523.281.461.574-.348 1.621-1.34 3.855-4.156 3.855-.367 0-.687.168-.961.422-.676.625-1.574.953-2.492.953h-.207c-.922 0-1.816-.328-2.492-.953-.277-.254-.598-.422-.965-.422-2.816 0-3.805-2.234-4.152-3.855-.062-.293.16-.574.461-.574h14.504"/></g><path d="M194.324 183.777h-13.883c-.527 0-.957-.426-.957-.957a.96.96 0 0 1 .957-.957h13.883a.96.96 0 0 1 .961.957c0 .531-.43.957-.961.957m16.84-45.468a23.63 23.63 0 0 1-3.613 12.605c-1.016 1.625-2.293 3.074-3.746 4.324-2.309 1.984-7.277 7.184-7.277 15.125-.004.074-.004.152-.008.227-.094 2.617-2.258 4.684-4.879 4.684h-2.516a4.88 4.88 0 0 0 4.883-4.684c0-.074.004-.152.004-.227 0-7.941 4.973-13.141 7.277-15.125a19.06 19.06 0 0 0 3.75-4.324c2.289-3.652 3.613-7.977 3.613-12.605 0-12.715-9.977-23.098-22.523-23.75a22.2 22.2 0 0 1 1.254-.031c13.137 0 23.781 10.645 23.781 23.781" class="E"/><g class="C"><use href="#M"/><path d="M195.285 179.988c0 .266-.109.504-.281.676s-.414.281-.68.281h-.805c.262 0 .504-.105.676-.281s.281-.41.281-.676c0-.531-.43-.957-.957-.957h.805c.531 0 .961.426.961.957"/></g><g clip-path="url(#H)" class="C"><path d="M195.098 185.27c-.348 1.621-1.34 3.855-4.156 3.855-.367 0-.687.168-.965.422-.672.625-1.57.953-2.488.953h-.207c-.242 0-.484-.023-.723-.066h.121c.918 0 1.816-.332 2.492-.953.273-.258.594-.426.965-.426 2.813 0 3.805-2.23 4.152-3.855.043-.203-.051-.402-.215-.504h.563c.301 0 .523.277.461.574"/></g><use href="#M" y="5.668" class="C"/><path d="M170.871 130.379c-.113 0-.23-.016-.344-.051-.633-.187-.988-.855-.801-1.484.828-2.762 2.332-5.012 4.469-6.684 1.75-1.371 3.496-1.996 4.383-2.242.633-.18 1.293.191 1.473.824a1.19 1.19 0 0 1-.828 1.473 10.61 10.61 0 0 0-3.559 1.824c-1.738 1.363-2.965 3.211-3.648 5.488-.156.52-.633.852-1.145.852"/><g clip-path="url(#I)" class="C"><path d="M152.828 139.695c-.059 0-.117-.004-.176-.008l-6.805-.691a1.71 1.71 0 1 1 .348-3.402l6.805.688c.938.098 1.625.938 1.527 1.875a1.71 1.71 0 0 1-1.699 1.539"/></g><path d="M158.867 122.367c-.352 0-.703-.105-1.008-.328l-5.613-4.102a1.711 1.711 0 1 1 2.02-2.762l5.613 4.102a1.71 1.71 0 0 1-1.012 3.09m12.617-10.394a1.72 1.72 0 0 1-1.527-.934l-3.129-6.152a1.71 1.71 0 0 1 .75-2.301c.84-.426 1.871-.094 2.301.75l3.129 6.148a1.71 1.71 0 0 1-.746 2.301 1.69 1.69 0 0 1-.777.188" class="C"/><g clip-path="url(#J)" class="C"><path d="M187.383 108.508a1.71 1.71 0 0 1-1.711-1.711v-6.832a1.71 1.71 0 1 1 3.422 0v6.832a1.71 1.71 0 0 1-1.711 1.711"/></g><path d="M203.281 111.973a1.69 1.69 0 0 1-.773-.187c-.844-.43-1.176-1.457-.75-2.301l3.133-6.148c.43-.844 1.457-1.176 2.301-.75s1.176 1.461.75 2.301l-3.133 6.152c-.301.59-.902.934-1.527.934m12.616 10.393a1.71 1.71 0 0 1-1.008-3.09l5.613-4.102a1.711 1.711 0 1 1 2.02 2.762l-5.617 4.102a1.69 1.69 0 0 1-1.008.328" class="C"/><g clip-path="url(#K)" class="C"><path d="M221.941 139.695c-.867 0-1.613-.656-1.703-1.539-.094-.937.59-1.777 1.531-1.875l6.805-.687a1.71 1.71 0 0 1 1.875 1.527 1.71 1.71 0 0 1-1.531 1.875l-6.805.691-.172.008"/></g><g class="D"><path d="M284.633 143.82l-1.754 12.473c-.066.457-.129.781-.391 1.105l-3.57 5.133-7.863 11.043c-.52.715-.906 1.43-1.102 2.273-.52 2.273 1.363 4.547 3.703 4.418 1.559-.066 2.598-.91 3.508-2.016l13.965-17.668a5.73 5.73 0 0 0 1.168-2.469l2.406-11.109-5.781-.781c-1.82-.324-3.25-1.168-4.289-2.402zm25.48-46.75a6.48 6.48 0 0 1 1.234.637 6.39 6.39 0 0 1 1.078.898 6.66 6.66 0 0 1 .879 1.117 7.33 7.33 0 0 1 .652 1.297 8.05 8.05 0 0 1 .391 1.43 7.98 7.98 0 0 1 .121 1.504c-.008.512-.059 1.016-.156 1.52s-.238 1-.422 1.48a8.86 8.86 0 0 1-.68 1.379c-.27.441-.57.852-.906 1.23a8.34 8.34 0 0 1-1.102 1.035 7.93 7.93 0 0 1-1.25.793c-.437.223-.891.398-1.355.527s-.93.207-1.402.234-.937.012-1.398-.059a6.38 6.38 0 0 1-1.344-.359 6.48 6.48 0 0 1-1.234-.637 6.56 6.56 0 0 1-1.078-.895 7.1 7.1 0 0 1-.883-1.121 7.24 7.24 0 0 1-.648-1.297 7.65 7.65 0 0 1-.391-1.43 7.98 7.98 0 0 1-.121-1.504c.008-.512.059-1.016.156-1.52s.238-.996.422-1.48a8.86 8.86 0 0 1 .68-1.379c.27-.441.57-.852.906-1.23a8.34 8.34 0 0 1 1.102-1.035 7.93 7.93 0 0 1 1.25-.793c.438-.223.891-.398 1.352-.523a7.19 7.19 0 0 1 1.406-.238 6.39 6.39 0 0 1 1.398.063 6.37 6.37 0 0 1 1.344.355zm0 0"/><path d="M267.68 134.273c.844 0 1.492-.328 2.078-.715.715-.457 9.027-9.16 10.004-9.617s10.328-2.336 10.328-2.336l-4.547 13.965c-.391 1.105-.52 2.211-.453 3.379.191 2.469 1.363 4.48 4.285 5.133 1.43.324 12.082 1.492 16.109 1.949l-7.598 16.434c-1.039 2.469.52 5.066 2.922 5.262 1.949.129 3.313-.91 4.156-2.535l10.914-20.527c.715-1.297.844-2.727.391-4.223-.781-2.469-2.859-3.051-5.066-3.441l-11.176-2.145 6.109-10.586 7.402 4.547c1.82 1.039 3.77.906 5.262-.52l10.656-10.461c1.43-2.078 0-4.742-2.273-4.805-1.43 0-2.406.777-3.379 1.559l-7.73 6.496c-.066.063-7.73-5.652-8.184-6.043-.391-.324-.586-.453-1.105-.453-.391 0-.781 0-1.168-.066-.781-.066-1.496-.258-2.211-.52-1.105-.391-2.078-1.039-2.922-1.82-.324-.324-.648-.906-1.039-1.102s-.844-.066-1.234 0c-.781.129-1.496.258-2.273.453-2.664.586-17.344 4.676-18.191 5.004-1.363.52-2.598 1.297-3.637 2.465-2.922 3.512-5.977 6.887-8.898 10.332-.781.973-.91 2.141-.262 3.246.715.977 1.43 1.754 2.73 1.691zm0 0"/></g><g clip-path="url(#L)" class="D"><path d="M336.73 141.156l-8.312 4.68 3.895 2.922c-18.121 22.152-38.066 31.766-51.773 35.859-15.133 4.547-26.047 3.637-26.176 3.637l3.051 2.727-2.598 3.121c.324 0 .715 0 1.168.063 4.094.066 13.707-.195 25.984-3.832 14.551-4.352 35.793-14.484 55.023-38l3.766 2.793 2.082-9.289 2.078-9.289zm0 0"/></g><g class="D"><path d="M48.523 295.046c13.328 0 21.078-7.969 21.078-19.656 0-8.734-6.437-16.719-14.187-17.922 6.656-1.406 12.766-7.531 12.766-16.703 0-10.922-7.75-18.562-20.422-18.562H15.32v72.844zM24.382 230.28h21.844c8.203 0 12.563 5.234 12.563 11.797 0 6.656-4.359 11.688-12.562 11.688H24.382zm0 31.563h22.281c8.969 0 13.547 5.891 13.547 12.563 0 7.75-5.016 12.563-13.547 12.563H24.382zm66.845 4.922c0 17.906 9.938 29.594 29.719 29.594 19.766 0 29.703-11.578 29.703-29.703v-44.453h-9.062v44.344c0 13.313-7.219 21.734-20.641 21.734-13.437 0-20.656-8.422-20.656-21.734v-44.344h-9.062zm0 0"/><use href="#N"/><path d="M271.337 295.046V230.28h23.156v-8.078h-55.266v8.078h23.047v64.766zm0 0"/><use href="#N" x="138.818"/><path d="M27.542 328.301c-3.055 0-5.656-.656-7.812-1.969-2.148-1.32-3.777-3.176-4.891-5.562-1.105-2.383-1.656-5.187-1.656-8.406 0-3.102.648-5.848 1.953-8.234s3.086-4.234 5.359-5.547c2.281-1.32 4.836-1.984 7.672-1.984 2.133 0 4.695.336 7.688 1l1.375.25-.422 7.484h-2.781l-1.047-5.281c-.387-.332-1.059-.613-2.016-.844-.961-.238-2.133-.359-3.516-.359-1.773 0-3.352.508-4.734 1.516s-2.477 2.5-3.266 4.469-1.187 4.328-1.187 7.078c0 2.605.344 4.977 1.031 7.109.695 2.137 1.754 3.84 3.172 5.109 1.414 1.262 3.16 1.891 5.234 1.891 1.469 0 2.598-.125 3.391-.375s1.461-.609 2.016-1.078l1.75-4.078 2.625.328-1 5.906c-.586.031-1.445.227-2.578.578a26.56 26.56 0 0 1-2.891.734c-.926.179-2.086.266-3.469.266zm33.48 0c-2.824 0-5.215-.648-7.172-1.953s-3.437-3.133-4.437-5.5c-.992-2.375-1.484-5.129-1.484-8.266 0-3.195.598-6 1.797-8.406 1.207-2.414 2.863-4.281 4.969-5.594 2.113-1.32 4.488-1.984 7.125-1.984 4.32 0 7.629 1.371 9.922 4.109 2.289 2.73 3.438 6.508 3.438 11.328 0 3.25-.621 6.105-1.859 8.563-1.23 2.449-2.922 4.344-5.078 5.688-2.148 1.344-4.555 2.016-7.219 2.016zm.547-29.531c-2.687 0-4.812 1.172-6.375 3.516-1.555 2.344-2.328 5.777-2.328 10.297 0 4.156.754 7.449 2.266 9.875 1.52 2.43 3.641 3.641 6.359 3.641 2.656 0 4.766-1.203 6.328-3.609 1.57-2.414 2.359-5.883 2.359-10.406 0-4.187-.75-7.453-2.25-9.797-1.492-2.344-3.609-3.516-6.359-3.516zm27.91.75l-3.328-.5v-2.094h7.734l13.859 20.313 2.328 4.406V299.52l-3.609-.5v-2.094h9.813v2.094l-3.328.5v28.328h-3.281l-14.156-20.766-3.203-5.484v23.797l3.953.422v2.031h-10.11v-2.031l3.328-.469zm47.428 28.781c-1.437 0-2.73-.125-3.875-.375l-3.734-1c-.836-.301-1.461-.469-1.875-.5l.328-7.531h2.672l.703 5.422c.469.438 1.234.836 2.297 1.188 1.07.344 2.25.516 3.531.516 2.102 0 3.703-.469 4.797-1.406 1.102-.945 1.656-2.254 1.656-3.922 0-1.082-.305-2.008-.906-2.781-.594-.781-1.387-1.445-2.375-2-.98-.562-2.328-1.211-4.047-1.953-1.555-.695-2.906-1.406-4.062-2.125-1.148-.719-2.148-1.68-3-2.891-.844-1.207-1.266-2.66-1.266-4.359 0-1.52.41-2.883 1.234-4.094s2-2.156 3.531-2.844c1.539-.695 3.336-1.047 5.391-1.047 1.281 0 2.41.102 3.391.297l3.359.781c.551.199 1.02.324 1.406.375l-.25 7h-2.531l-.844-5.125c-.273-.27-.844-.531-1.719-.781s-1.824-.375-2.844-.375c-1.918 0-3.371.402-4.359 1.203-.98.805-1.469 1.965-1.469 3.484 0 1.117.297 2.047.891 2.797s1.332 1.391 2.219 1.922c.895.523 2.313 1.242 4.25 2.156l4.406 2.328a10.08 10.08 0 0 1 2.938 2.734c.82 1.117 1.234 2.449 1.234 4 0 1.48-.414 2.902-1.234 4.266-.812 1.355-2.062 2.469-3.75 3.344-1.68.863-3.711 1.297-6.094 1.297zm36.039-.125c-4.086 0-7.09-1.086-9.016-3.266s-2.891-5.551-2.891-10.125V299.52l-2.953-.5v-2.094h11.109v2.094l-3.531.531v15.688c0 3.773.672 6.492 2.016 8.156s3.273 2.5 5.797 2.5c2.531 0 4.426-.883 5.688-2.656 1.258-1.781 1.891-4.363 1.891-7.75v-15.937l-3.5-.531v-2.094h9.703v2.094l-3.047.5v15.766c0 4.324-1.027 7.555-3.078 9.688s-4.781 3.203-8.187 3.203zm27.911-28.656l-3.375-.5v-2.094h11.938v2.094l-4.109.5v25.875l10.734-.375 2.453-6.984 2.531.375-1.453 9.438h-22.172v-2.031l3.453-.422zm40.516-.375l-7.156.25-1.453 8.688h-2.75l.719-11.156h25.922l.5 11.156h-2.625l-1.375-8.687-7.203-.25v26.25l5.906.422v2.031h-15.891v-2.031l5.406-.422zm30.366.375l-3.859-.5v-2.094h12.234v2.094l-3.875.5v25.875l3.875.453v2h-12.203v-2.031l3.828-.422zm23.594 0l-3.328-.5v-2.094h7.734l13.859 20.313 2.328 4.406V299.52l-3.609-.5v-2.094h9.813v2.094l-3.328.5v28.328h-3.281l-14.156-20.766-3.203-5.484v23.797l3.953.422v2.031h-10.109v-2.031l3.328-.469zm51.599 28.781c-3 0-5.59-.66-7.766-1.984-2.18-1.332-3.836-3.172-4.969-5.516s-1.703-5-1.703-7.969c0-3.414.672-6.344 2.016-8.781 1.344-2.445 3.207-4.301 5.594-5.562s5.102-1.891 8.156-1.891c2.801 0 6.031.434 9.688 1.297l-.375 7.188h-2.953l-1-4.984c-.387-.312-1.043-.602-1.969-.875-.93-.281-2.172-.422-3.734-.422-2.023 0-3.809.5-5.359 1.5s-2.766 2.484-3.641 4.453-1.312 4.355-1.312 7.156c0 2.586.352 4.945 1.063 7.078s1.785 3.852 3.234 5.141c1.457 1.281 3.242 1.922 5.359 1.922 1.332 0 2.594-.156 3.781-.469 1.195-.32 2.113-.742 2.75-1.266v-9.281l-5.25-.422v-2.453h12.156v2.453l-2.406.375v11.188c-.617.031-1.633.273-3.047.719l-4.078 1.031c-1.273.25-2.684.375-4.234.375zm0 0"/></g></svg>